<svg xmlns="http://www.w3.org/2000/svg" viewBox="0 0 120 140" role="img" aria-labelledby="logoTitle">
  <title id="logoTitle">Too CRM</title>
  <defs>
    <radialGradient id="biteGlow" cx="72%" cy="50%" r="38%">
      <stop offset="0%" stop-color="#38bdf8" stop-opacity="1"/>
      <stop offset="55%" stop-color="#2563eb" stop-opacity="0.85"/>
      <stop offset="100%" stop-color="#0f172a" stop-opacity="0"/>
    </radialGradient>
    <filter id="softGlow" x="-40%" y="-40%" width="180%" height="180%">
      <feGaussianBlur stdDeviation="1.8" result="b"/>
      <feMerge>
        <feMergeNode in="b"/>
        <feMergeNode in="SourceGraphic"/>
      </feMerge>
    </filter>
  </defs>
  <!-- Leaf -->
  <path fill="#0f172a" d="M58 6c-4 8-2 18 6 22 4-10 2-20-6-22z"/>
  <!-- Digital bite: glow + network (under black apple) -->
  <g filter="url(#softGlow)">
    <ellipse cx="86" cy="58" rx="24" ry="28" fill="url(#biteGlow)"/>
    <g fill="none" stroke="#ffffff" stroke-width="1.2" stroke-linecap="round" stroke-linejoin="round">
      <path d="M70 46 L80 54 L76 66 L86 74 L82 86"/>
      <path d="M80 54 L92 50 L94 62"/>
      <circle cx="70" cy="46" r="2.5" fill="#fff" stroke="none"/>
      <circle cx="80" cy="54" r="2.5" fill="#fff" stroke="none"/>
      <circle cx="76" cy="66" r="2.5" fill="#fff" stroke="none"/>
      <circle cx="86" cy="74" r="2.5" fill="#fff" stroke="none"/>
      <circle cx="82" cy="86" r="2.5" fill="#fff" stroke="none"/>
      <circle cx="92" cy="50" r="2.5" fill="#fff" stroke="none"/>
      <circle cx="94" cy="62" r="2.5" fill="#fff" stroke="none"/>
    </g>
  </g>
  <!-- Apple silhouette with bite hole (even-odd) -->
  <path
    fill="#0f172a"
    fill-rule="evenodd"
    d="M60 24c-18 0-32 14-32 36 0 28 18 48 38 48s38-20 38-48c0-22-14-36-32-36-4 0-8 1-12 3-4-2-8-3-12-3z
       M86 58 m-18 0 a18 18 0 1 0 36 0 a18 18 0 1 0-36 0"
  />
</svg>
